<svg width="30" height="30" viewBox="0 0 30 30" fill="none" xmlns="http://www.w3.org/2000/svg">
<circle cx="15" cy="15" r="15" fill="#666060" fill-opacity="0.62"/>
<path d="M7.69336 19H6V12.4727L3.97852 13.0996V11.7227L7.51172 10.457H7.69336V19ZM16.2129 15.4727C16.2129 16.6523 15.9688 17.5547 15.4805 18.1797C14.9922 18.8047 14.2773 19.1172 13.3359 19.1172C12.4062 19.1172 11.6953 18.8105 11.2031 18.1973C10.7109 17.584 10.459 16.7051 10.4473 15.5605V13.9902C10.4473 12.7988 10.6934 11.8945 11.1855 11.2773C11.6816 10.6602 12.3945 10.3516 13.3242 10.3516C14.2539 10.3516 14.9648 10.6582 15.457 11.2715C15.9492 11.8809 16.2012 12.7578 16.2129 13.9023V15.4727ZM14.5195 13.75C14.5195 13.043 14.4219 12.5293 14.2266 12.209C14.0352 11.8848 13.7344 11.7227 13.3242 11.7227C12.9258 11.7227 12.6309 11.877 12.4395 12.1855C12.252 12.4902 12.1523 12.9688 12.1406 13.6211V15.6953C12.1406 16.3906 12.2344 16.9082 12.4219 17.248C12.6133 17.584 12.918 17.752 13.3359 17.752C13.75 17.752 14.0488 17.5898 14.2324 17.2656C14.416 16.9414 14.5117 16.4453 14.5195 15.7773V13.75ZM23.8359 14.2246H25.9512V15.7539H23.8359V18.1445H22.2246V15.7539H20.1035V14.2246H22.2246V11.9336H23.8359V14.2246Z" fill="black"/>
</svg>
